<?xml version="1.0" encoding="UTF-8"?>
<svg width="39px" height="35px" viewBox="0 0 39 35" version="1.1" xmlns="http://www.w3.org/2000/svg" xmlns:xlink="http://www.w3.org/1999/xlink">
    <title>隐藏</title>
    <g id="页面-1" stroke="none" stroke-width="1" fill="none" fill-rule="evenodd">
        <g id="用户名登录-状态" transform="translate(-615.000000, -621.000000)" fill="#6595DE">
            <g id="隐藏" transform="translate(615.000000, 621.000000)">
                <path d="M37.7356094,17.1186398 L38.0629386,17.5198532 L38.5686219,18.1473394 L37.7356094,19.1760391 C32.2662381,25.7975062 26.1028415,29.1473394 19.2843109,29.1473394 C17.2064348,29.1473394 15.1893984,28.8362531 13.2343025,28.2162935 L16.0036932,25.4459127 C17.0047622,25.8965795 18.1152525,26.1473394 19.2843109,26.1473394 C23.7025889,26.1473394 27.2843109,22.5656174 27.2843109,18.1473394 C27.2843109,16.9782902 27.0335549,15.8678083 26.5828948,14.8667455 L28.0750741,13.376531 C28.8462215,14.7944581 29.2843109,16.4197382 29.2843109,18.1473394 C29.2843109,21.391498 27.7394837,24.2748427 25.3453269,26.1018761 C28.9271136,24.8246996 32.3048686,22.3749249 35.4872375,18.733999 L35.8535673,18.3086049 L35.9883109,18.147 L35.8535673,17.986074 C33.7589189,15.517626 31.5789637,13.5704408 29.3110642,12.1392147 L30.7578853,10.6929074 C33.1957112,12.2956857 35.5224782,14.4393235 37.7356094,17.1186398 Z M19.2843109,7.14733944 C22.5119938,7.14733944 25.5928752,7.89796494 28.52283,9.3909212 L27.0277848,10.886346 C26.471872,10.6259101 25.9108879,10.3948342 25.3447964,10.1930457 L25.480567,10.297844 C25.8767699,10.6110265 26.2486982,10.9535666 26.5930683,11.3221806 L25.1769949,12.7365173 C23.7147553,11.1448969 21.6160292,10.1473394 19.2843109,10.1473394 C14.8660329,10.1473394 11.2843109,13.7290614 11.2843109,18.1473394 C11.2843109,20.4790577 12.2818684,22.5777839 13.8734888,24.0400234 L12.4589972,25.4553916 C10.5052188,23.6302913 9.28431094,21.0313945 9.28431094,18.1473394 C9.28431094,14.9033368 10.8289897,12.0201132 13.2229499,10.1930661 L13.1739271,10.210913 C9.60954164,11.4929903 6.24781251,13.9375085 3.07974226,17.5625588 L2.71505461,17.986074 L2.57931094,18.147 L2.71505461,18.3086049 C5.7033979,21.8302317 8.86537017,24.2909075 12.2086303,25.7060319 L10.6936046,27.2205986 C7.19260225,25.579374 3.9034446,22.8932424 0.833012433,19.1760391 L0.505683292,18.7748257 L0,18.1473394 L0.505683292,17.5198532 C6.05611,10.632506 12.3294097,7.14733944 19.2843109,7.14733944 Z" id="形状结合" fill-rule="nonzero"></path>
                <rect id="矩形" transform="translate(19.534311, 17.147339) rotate(-315.000000) translate(-19.534311, -17.147339) " x="18.2843109" y="-5.85266056" width="2.5" height="46"></rect>
            </g>
        </g>
    </g>
</svg>